<svg enable-background="new 0 0 120 60" height="60" viewBox="0 0 120 60" width="120" xmlns="http://www.w3.org/2000/svg"><path d="m34.3 30.6c-1 0-1.8.4-2.5 1.1-.5.6-.8 1.3-.8 2.1s.3 1.5.8 2.1c.6.7 1.5 1.1 2.5 1.1.9 0 1.7-.3 2.3-.9s.9-1.4.9-2.3-.3-1.7-1-2.3c-.6-.6-1.3-.9-2.2-.9z" fill="none"/><path d="m53.2 30.6c-1 0-1.8.4-2.5 1.1-.5.6-.8 1.3-.8 2.1s.3 1.5.8 2.1c.6.7 1.5 1.1 2.5 1.1.9 0 1.7-.3 2.3-.9s.9-1.4.9-2.3-.3-1.7-1-2.3c-.6-.6-1.3-.9-2.2-.9z" fill="none"/><path d="m72.3 30.6c-.9 0-1.7.3-2.3.9s-.9 1.4-.9 2.3.3 1.7 1 2.3 1.4.9 2.3.9c1 0 1.8-.4 2.5-1.1.5-.6.8-1.3.8-2.1s-.3-1.5-.8-2.1c-.8-.7-1.6-1.1-2.6-1.1z" fill="none"/><g fill="#0d2192"><path d="m37.4 28.1c-.5-.6-1.1-1-1.6-1.2-.9-.4-1.8-.6-2.8-.6-1.7 0-3.3.6-4.6 1.7-1.7 1.4-2.5 3.4-2.5 5.8s.8 4.3 2.5 5.8c1.4 1.2 3 1.8 4.7 1.8 1.1 0 2.1-.2 2.9-.7.5-.3 1-.7 1.5-1.3v1.6h5v-23.1h-5v10.2zm-.8 8.1c-.6.6-1.4.9-2.3.9-1 0-1.8-.4-2.5-1.1-.5-.6-.8-1.3-.8-2.1s.3-1.5.8-2.1c.6-.7 1.5-1.1 2.5-1.1.9 0 1.7.3 2.3.9s1 1.4 1 2.3c-.1.9-.4 1.6-1 2.3z"/><path d="m56.3 28.1c-.5-.6-1.1-1-1.6-1.2-.9-.4-1.8-.6-2.8-.6-1.7 0-3.3.6-4.6 1.7-1.7 1.5-2.5 3.4-2.5 5.8s.8 4.3 2.5 5.8c1.4 1.2 3 1.8 4.7 1.8 1.1 0 2.1-.2 2.9-.7.5-.3 1-.7 1.5-1.3v1.6h5v-14.3h-5v1.4zm-.8 8.1c-.6.6-1.4.9-2.3.9-1 0-1.8-.4-2.5-1.1-.5-.6-.8-1.3-.8-2.1s.3-1.5.8-2.1c.6-.7 1.5-1.1 2.5-1.1.9 0 1.7.3 2.3.9s1 1.4 1 2.3c-.1.9-.4 1.6-1 2.3z"/><path d="m78.3 28.1c-1.4-1.2-3-1.8-4.7-1.8-1.1 0-2.1.2-2.9.7-.5.3-1 .7-1.5 1.3v-1.6h-5v14.2l-.5 12 3 2.1 3-2.1-.4-11.8v-1.6c.5.6 1.1 1 1.6 1.2.9.4 1.8.6 2.8.6 1.7 0 3.3-.6 4.6-1.7 1.7-1.5 2.5-3.4 2.5-5.8-.1-2.3-.9-4.3-2.5-5.7zm-3.6 7.9c-.6.7-1.5 1.1-2.5 1.1-.9 0-1.7-.3-2.3-.9s-1-1.4-1-2.3.3-1.7.9-2.3 1.4-.9 2.3-.9c1 0 1.8.4 2.5 1.1.5.6.8 1.3.8 2.1.1.7-.1 1.4-.7 2.1z"/><path d="m92.7 26.5c-1.1 0-2.1.2-2.9.7-.6.4-1.2 1-1.7 1.8v-2.3h-5v14.3h5v-6.1c0-.8.1-1.5.3-2 .5-1.3 1.6-2 3.2-2 .7 0 1.4.2 2.2.5v-4.8c-.5-.1-.8-.1-1.1-.1z"/></g><path d="m53.1 5.2h-.4v.4c0-.3.2-.4.4-.4z" fill="#fff" opacity=".08"/><path d="m56.3 17.8v3.2h20.8c.4 0 .7-.3.7-.7v-1.9c0-.4-.3-.7-.7-.7h-5.1v-12.2c0-.2-.2-.4-.4-.4h-11.8v12.7z" fill="#0d2192"/><path d="m47.3 21.1h8.9v-3.3h3.6v-12.6h-6.7c-.2 0-.4.2-.4.4v12.3h-5.4c-.4 0-.7.3-.7.7v1.9c0 .3.4.6.7.6z" fill="#0d2192"/><path d="m47.3 21.1h8.9v-3.3h3.6v-12.6h-6.7c-.2 0-.4.2-.4.4v12.3h-5.4c-.4 0-.7.3-.7.7v1.9c0 .3.4.6.7.6z" fill="#fff" opacity=".08"/></svg>